<?xml version="1.0" standalone="no"?>
<!DOCTYPE svg PUBLIC "-//W3C//DTD SVG 20010904//EN"
 "http://www.w3.org/TR/2001/REC-SVG-20010904/DTD/svg10.dtd">
<svg version="1.0" xmlns="http://www.w3.org/2000/svg"
 width="500.000000pt" height="500.000000pt" viewBox="0 0 500.000000 500.000000"
 preserveAspectRatio="xMidYMid meet">
<metadata>
Created by potrace 1.14, written by Peter Selinger 2001-2017
</metadata>
<g transform="translate(0.000000,500.000000) scale(0.100000,-0.100000)"
fill="#000000" stroke="none">
<path d="M2430 3865 c0 -45 -4 -65 -12 -66 -7 -1 -97 -1 -200 -1 -169 0 -188
-1 -189 -16 -1 -9 -2 -39 -3 -67 l-1 -50 -67 -3 -68 -3 0 -64 c0 -45 -4 -65
-12 -66 -7 0 -68 0 -135 0 l-123 1 0 -135 c0 -152 10 -136 -87 -137 -47 0 -50
-5 -48 -85 l1 -53 -68 0 -68 0 0 -65 0 -65 -64 0 c-42 0 -65 -4 -68 -12 -3 -7
-4 -39 -3 -70 l2 -58 -68 0 -69 0 0 -68 0 -68 -65 4 c-36 2 -66 0 -66 -5 -1
-4 -2 -35 -3 -68 l-1 -60 -67 -3 -68 -3 0 -64 0 -65 -64 0 c-42 0 -65 -4 -68
-12 -3 -7 -4 -39 -3 -70 l2 -58 -68 0 -69 0 0 -65 c0 -45 -4 -65 -12 -66 -7 0
-99 -1 -203 -1 l-190 0 1 -62 c0 -34 3 -67 6 -72 4 -5 -24 -8 -68 -6 l-74 4 0
-136 0 -136 69 0 68 0 -1 -67 -1 -68 195 -1 c107 0 200 1 206 3 6 2 10 30 9
68 l-2 64 136 3 136 3 -1 63 c-1 39 3 62 10 63 6 0 67 1 136 2 l125 2 0 65 0
65 133 3 132 3 0 -71 0 -70 68 2 67 2 0 -202 0 -202 68 0 67 0 0 -135 0 -135
135 0 c101 0 135 3 136 13 1 6 2 66 3 132 l1 120 68 3 67 3 0 134 0 135 65 0
65 0 0 -71 c0 -61 2 -70 18 -68 9 1 40 1 67 0 l51 -1 -1 -132 0 -132 40 -2
c22 -1 52 -3 68 -3 27 -1 27 -2 27 -66 l0 -65 134 0 c98 0 135 3 138 13 2 6 4
67 3 135 l0 122 67 0 68 0 0 270 0 270 65 0 65 0 0 -135 0 -135 68 0 68 0 -1
-135 -1 -135 68 0 68 0 0 -135 0 -135 269 0 c206 0 270 3 273 13 2 6 4 66 3
132 l0 120 -68 3 -67 3 0 64 0 65 33 1 c31 1 72 4 92 7 6 1 10 50 9 128 0 94
3 127 12 131 19 7 114 10 115 3 1 -3 2 -124 3 -270 l1 -265 55 -2 c30 -1 61
-2 68 -2 8 -1 12 -21 12 -66 l0 -65 205 0 205 0 0 135 0 134 -67 3 -68 3 0
193 c0 118 4 196 10 200 5 3 35 6 65 7 l55 0 3 270 2 270 200 -1 c140 -1 200
2 202 10 2 6 3 36 3 66 l0 55 -203 3 -202 2 0 65 0 65 73 1 c39 0 160 1 267 2
l195 2 3 68 3 67 -136 0 -135 0 0 205 0 205 -42 -1 c-101 -3 -97 -5 -96 54 0
28 0 58 -1 65 -1 8 -21 12 -66 12 l-65 0 0 135 0 135 -69 0 -69 0 2 65 c2 51
-1 66 -13 69 -9 2 -71 4 -138 4 l-123 -1 0 -68 0 -69 -269 0 -268 0 0 53 c0
28 -1 59 -2 68 -1 15 -22 17 -183 17 -101 0 -191 1 -200 1 -15 1 -18 11 -18
66 l0 65 -340 0 -340 0 0 -65z"/>
</g>
</svg>
